<?xml version="1.0" encoding="UTF-8" standalone="no"?>
<!-- Uploaded to: SVG Repo, www.svgrepo.com, Generator: SVG Repo Mixer Tools -->

<svg
   version="1.1"
   id="Capa_1"
   width="800px"
   height="800px"
   viewBox="0 0 32 32"
   enable-background="new 0 0 32 32"
   xml:space="preserve"
   sodipodi:docname="coffe.svg"
   inkscape:version="1.4 (e7c3feb100, 2024-10-09)"
   xmlns:inkscape="http://www.inkscape.org/namespaces/inkscape"
   xmlns:sodipodi="http://sodipodi.sourceforge.net/DTD/sodipodi-0.dtd"
   xmlns="http://www.w3.org/2000/svg"
   xmlns:svg="http://www.w3.org/2000/svg"><defs
   id="defs7" /><sodipodi:namedview
   id="namedview7"
   pagecolor="#ffffff"
   bordercolor="#000000"
   borderopacity="0.25"
   inkscape:showpageshadow="2"
   inkscape:pageopacity="0.0"
   inkscape:pagecheckerboard="0"
   inkscape:deskcolor="#d1d1d1"
   showgrid="false"
   inkscape:zoom="1.0253048"
   inkscape:cx="304.29975"
   inkscape:cy="433.04195"
   inkscape:window-width="2504"
   inkscape:window-height="1371"
   inkscape:window-x="0"
   inkscape:window-y="0"
   inkscape:window-maximized="1"
   inkscape:current-layer="Capa_1"><inkscape:grid
     id="grid8"
     units="px"
     originx="0"
     originy="0"
     spacingx="0.04"
     spacingy="0.04"
     empcolor="#0099e5"
     empopacity="0.30196078"
     color="#0099e5"
     opacity="0.14901961"
     empspacing="5"
     enabled="true"
     visible="false" /></sodipodi:namedview>







<rect
   style="fill:#ffffff;stroke-width:0.0196757"
   id="rect8"
   width="22.705444"
   height="6.3200707"
   x="1.7165625"
   y="16.034256" /><rect
   style="fill:#ffffff;stroke-width:0.0130889"
   id="rect8-3"
   width="21.418022"
   height="2.9649708"
   x="2.477478"
   y="21.939816" /><rect
   style="fill:#ffffff;stroke-width:0.00660162"
   id="rect8-3-6"
   width="6.7882276"
   height="2.3797793"
   x="3.834516"
   y="24.58914" /><rect
   style="fill:#ffffff;stroke-width:0.00660162"
   id="rect8-3-6-7"
   width="6.7882276"
   height="2.3797793"
   x="5.1402197"
   y="26.085924" /><rect
   style="fill:#ffffff;stroke-width:0.0074568"
   id="rect8-3-6-5"
   width="8.660841"
   height="2.3797793"
   x="6.5368185"
   y="27.570383" /><rect
   style="fill:#ffffff;stroke-width:0.00854526"
   id="rect8-3-6-3"
   width="8.8949184"
   height="3.0429969"
   x="9.0770025"
   y="28.113091" /><g
   id="g8"
   transform="translate(0.69786236,-0.00179418)"><path
     fill="#ffa28d"
     d="m 14.004348,17.262646 c 0,-0.347926 0.282375,-0.630301 0.630301,-0.630301 h 10.08481 c 0.347926,0 0.630301,0.282375 0.630301,0.630301 v 0 c 0,0.347926 -0.282375,0.630301 -0.630301,0.630301 h -10.08481 c -0.347926,0 -0.630301,-0.282375 -0.630301,-0.630301 z"
     id="path1"
     style="stroke-width:1.2606" /><path
     fill="#ffa28d"
     d="M 23.950492,19.153548 C 23.307586,25.204434 20.245585,29.339206 15.113677,30.284657 10.146908,29.225752 7.1844952,25.116192 6.5668006,19.153548 Z"
     id="path2"
     style="stroke-width:1.2606" /><path
     fill="#ffa28d"
     d="M 20.224155,1.7824614 C 20.022459,1.5051291 19.632933,1.416887 19.342995,1.6059772 19.053056,1.8076734 18.978681,2.1984598 19.16525,2.4883981 c 1.474903,2.2060523 1.413134,4.0465302 0.379441,5.2567074 -0.31515,0.3781804 -0.593743,0.6176946 -1.022348,0.8824209 -0.578616,0.3403623 -1.183704,0.7059367 -1.575751,1.3740556 -0.642907,1.109329 -0.542059,2.458172 0.289938,3.807016 0.113454,0.201697 0.31515,0.302545 0.529452,0.302545 l 0.327757,-0.08824 c 0.302544,-0.189091 0.392047,-0.579877 0.214302,-0.869815 -0.415998,-0.66812 -0.795439,-1.638783 -0.276072,-2.521204 0.238254,-0.390786 0.655513,-0.6429062 1.13202,-0.9202385 0.480289,-0.2899383 0.883682,-0.6176946 1.337498,-1.1471472 1.714418,-2.004356 1.184965,-4.5885887 -0.277332,-6.7820349 z"
     id="path3"
     style="stroke-width:1.2606" /><path
     fill="#ffa28d"
     d="M 13.88333,0.50925413 C 13.69424,0.23192185 13.290848,0.15628577 13.013516,0.35798198 c -0.289939,0.2016962 -0.352969,0.5924826 -0.151273,0.88242082 0.630301,0.907633 1.273208,2.3195064 1.121936,3.5296836 C 13.8203,6.1441419 12.774001,6.4466862 10.983948,6.8374726 10.441889,6.9635327 9.8998304,7.0769868 9.3829839,7.253471 7.8576563,7.7829235 6.9500234,8.6149204 6.622267,9.7998856 6.2314806,11.148729 6.4836009,12.774905 7.2399617,13.846416 c 0.1260601,0.176485 0.3151503,0.264727 0.5168465,0.264727 0.1260601,0 0.2521203,-0.03782 0.3655744,-0.113454 C 8.4123209,13.795992 8.4753509,13.405206 8.2736547,13.115268 7.7442022,12.371512 7.555112,11.123517 7.8324443,10.140248 8.0467465,9.3712812 8.6770471,8.8292226 9.7989823,8.4384362 10.240193,8.287164 10.731827,8.1863159 11.248674,8.0728618 12.925273,7.7072875 14.942236,7.253471 15.24478,4.9213586 15.472949,2.9422146 14.262771,1.0387067 13.88333,0.50925413 Z"
     id="path4"
     style="stroke-width:1.2606" /><path
     fill="#2d2220"
     d="M 18.958511,1.7824614 C 18.756815,1.5051291 18.366029,1.416887 18.07609,1.6059772 17.786152,1.8076734 17.710516,2.1984598 17.899606,2.4883981 19.37451,4.6944504 19.31148,6.5349283 18.277787,7.7451055 17.962636,8.1232859 17.685304,8.3628001 17.2567,8.6275264 c -0.579877,0.3403623 -1.184966,0.7059367 -1.575752,1.3740556 -0.642907,1.109329 -0.542059,2.458172 0.289938,3.807016 0.113454,0.201697 0.315151,0.302545 0.529453,0.302545 l 0.327756,-0.08824 c 0.302544,-0.189091 0.390786,-0.579877 0.214302,-0.869815 -0.415998,-0.66812 -0.794179,-1.638783 -0.277332,-2.521204 0.238254,-0.390786 0.655513,-0.6429062 1.133281,-0.9202385 0.479028,-0.2899383 0.88242,-0.6176946 1.337498,-1.1471472 1.714417,-2.004356 1.184965,-4.5885887 -0.277333,-6.7820349 z"
     id="path5"
     style="stroke-width:1.2606" /><path
     fill="#2d2220"
     d="M 12.617687,0.50925413 C 12.428597,0.23192185 12.025204,0.15628577 11.747872,0.35798198 11.457934,0.55967818 11.394904,0.95046458 11.5966,1.2404028 12.2269,2.1480358 12.869807,3.5599092 12.718535,4.7700864 12.554657,6.1441419 11.508358,6.4466862 9.7183038,6.8374726 9.1762453,6.9635327 8.6341867,7.0769868 8.1173402,7.253471 6.5920126,7.7829235 5.6843797,8.6149204 5.3566233,9.7998856 4.9658369,11.148729 5.2179572,12.774905 5.974318,13.846416 c 0.1260601,0.176485 0.3151503,0.264727 0.5168465,0.264727 0.1260601,0 0.2521203,-0.03782 0.3655744,-0.113454 C 7.1466772,13.795992 7.2097072,13.405206 7.008011,13.115268 6.4785585,12.371512 6.2894683,11.123517 6.5668006,10.140248 6.7811028,9.3712812 7.4114034,8.8292226 8.5333386,8.4384362 8.974549,8.287164 9.4661836,8.1863159 9.9830301,8.0728618 11.65963,7.7072875 13.676592,7.253471 13.979136,4.9213586 14.206044,2.9422146 12.995867,1.0387067 12.617687,0.50925413 Z"
     id="path6"
     style="stroke-width:1.2606" /><g
     id="g7"
     transform="matrix(1.2606013,0,0,1.2606013,-4.9046712,-2.2766748)">
	<path
   fill="#2d2220"
   d="M 23.97,16.01 C 23.98,15.68 24,15.35 24,15 24,14.45 23.55,14 23,14 H 5 c -0.55,0 -1,0.45 -1,1 0,5.59 2.08,9.33 5.47,11 H 9 C 8.72,26 8.5,26.22 8.5,26.5 8.5,26.78 8.72,27 9,27 h 10 c 0.28,0 0.5,-0.22 0.5,-0.5 C 19.5,26.22 19.28,26 19,26 h -0.47 c 0.56,-0.28 1.09,-0.61 1.58,-1 6.83,-0.04 7.949,-3.72 7.949,-5.5 C 28.06,17.08 26.49,16.07 23.97,16.01 Z M 14,26 C 8.2,26 5,21.63 5,15 h 18 c 0,1.45 -0.15,2.79 -0.46,4 H 16.5 c -0.28,0 -0.5,0.22 -0.5,0.5 0,0.28 0.22,0.5 0.5,0.5 h 5.75 c -0.24,0.73 -0.55,1.4 -0.91,2 H 17.5 c -0.28,0 -0.5,0.22 -0.5,0.5 0,0.28 0.22,0.5 0.5,0.5 h 3.16 c -1.52,1.91 -3.77,3 -6.66,3 z m 7.21,-2.05 c 1.46,-1.67 2.39,-4 2.68,-6.95 2.721,0.05 3.051,1.23 3.051,2.5 -10e-4,0.78 -0.251,3.98 -5.731,4.45 z"
   id="path7" />
</g><rect
     x="1.3983353"
     y="17.892946"
     fill="#2d2220"
     width="22.690823"
     height="1.2606013"
     id="rect7"
     style="stroke-width:1.2606" /></g>
</svg>
